<?xml version="1.0" encoding="UTF-8"?>
<svg id="Layer_2" data-name="Layer 2" xmlns="http://www.w3.org/2000/svg" viewBox="0 0 661.01 135.5">
  <defs>
    <style>
      .cls-1 {
        fill: #e3031a;
      }

      .cls-2 {
        fill: #404040;
      }
    </style>
  </defs>
  <g id="Layer_1-2" data-name="Layer 1">
    <path class="cls-1" d="M39.21,38.16c3.56-8.54,7.2-15.34,10.92-20.38,3.71-5.04,7.82-8.66,12.33-10.87,4.5-2.21,9.73-3.31,15.67-3.31,2.97,0,5.35.24,7.13.72v18c-.4-.09-.92-.17-1.56-.22-.65-.05-1.26-.07-1.86-.07-4.85,0-8.98,1.58-12.4,4.75s-6.76,8.59-10.02,16.27l-11.44,27.22c-3.56,8.45-7.18,15.17-10.84,20.16-3.66,4.99-7.72,8.57-12.18,10.73-4.46,2.16-9.75,3.24-15.89,3.24-1.68,0-3.32-.1-4.9-.29-1.58-.19-2.97-.43-4.16-.72v-18c1.39.38,3.12.58,5.2.58,5.05,0,9.3-1.56,12.77-4.68,3.46-3.12,6.73-8.42,9.8-15.91l11.44-27.22Z"/>
    <path class="cls-2" d="M124.45,105.98c-8.91,0-16.63-1.51-23.17-4.54-6.53-3.02-11.56-7.32-15.07-12.89-3.52-5.57-5.27-12.19-5.27-19.87,0-6.82,1.51-12.84,4.53-18.07,3.02-5.23,7.18-9.36,12.48-12.38,5.29-3.02,11.36-4.54,18.19-4.54,6.14,0,11.63,1.35,16.48,4.03,4.85,2.69,8.66,6.39,11.44,11.09,2.77,4.71,4.16,10.03,4.16,15.98,0,1.25-.03,2.66-.07,4.25-.05,1.58-.17,2.71-.37,3.38l-46.04,6.77c3.27,6.82,10.99,10.22,23.17,10.22,2.87,0,5.94-.26,9.21-.79,3.27-.53,6.04-1.22,8.32-2.09v16.56c-1.58.77-4.18,1.44-7.8,2.02-3.62.58-7.01.86-10.17.86ZM115.99,50.26c-4.36,0-7.92,1.27-10.69,3.82-2.77,2.54-4.46,5.98-5.05,10.3l28.51-4.32c-.59-2.97-2-5.35-4.23-7.13-2.23-1.78-5.08-2.66-8.54-2.66Z"/>
    <path class="cls-2" d="M159.65,36h18.42v5.62c1.78-2.4,4.21-4.32,7.28-5.76,3.07-1.44,6.48-2.16,10.25-2.16,6.83,0,12.23,2.09,16.19,6.26,3.96,4.18,5.94,9.82,5.94,16.92v46.8h-19.31v-42.19c0-6.81-3.17-10.22-9.5-10.22-2.18,0-4.23.5-6.16,1.51s-3.19,2.28-3.79,3.82v47.09h-19.31V36Z"/>
    <path class="cls-2" d="M232.86,86.98c2.47.58,5.02,1.03,7.65,1.37,2.62.34,5.12.5,7.5.5,3.46,0,5.94-.43,7.43-1.3s2.23-2.02,2.23-3.46c0-1.15-.5-2.25-1.49-3.31-.99-1.05-2.87-2.35-5.64-3.89l-7.87-4.46c-3.76-2.11-6.68-4.75-8.76-7.92s-3.12-6.53-3.12-10.08c0-5.95,2.52-10.75,7.57-14.4,5.05-3.65,12.03-5.47,20.94-5.47,2.67,0,5.35.12,8.02.36,2.67.24,4.95.6,6.83,1.08v15.84c-2.67-.48-5.05-.81-7.13-1.01-2.08-.19-4.16-.29-6.24-.29-3.37,0-5.74.38-7.13,1.15-1.39.77-2.08,1.73-2.08,2.88,0,.77.32,1.54.96,2.3.64.77,1.91,1.68,3.79,2.74l7.87,4.46c9.21,5.18,13.81,11.95,13.81,20.3,0,6.62-2.5,11.74-7.5,15.34-5,3.6-12.05,5.4-21.16,5.4-3.07,0-6.01-.14-8.84-.43-2.82-.29-5.37-.62-7.65-1.01v-16.7Z"/>
    <path class="cls-2" d="M313.95,133.92h-21.39l21.39-40.18-31.48-57.74h22.72l19.16,38.02,18.71-38.02h21.24l-50.34,97.92Z"/>
    <path class="cls-2" d="M394.59,103.68h-19.31v-51.55h-9.65v-16.13h9.65v-14.26l18.12-9.07h1.19v23.33h10.84v16.13h-10.84v51.55Z"/>
    <path class="cls-2" d="M415.23,0h19.31v40.46c1.78-2.11,4.13-3.77,7.05-4.97,2.92-1.2,6.11-1.8,9.58-1.8,6.83,0,12.23,2.09,16.19,6.26,3.96,4.18,5.94,9.82,5.94,16.92v46.8h-19.31v-42.19c0-6.81-3.17-10.22-9.5-10.22-2.18,0-4.23.5-6.16,1.51s-3.19,2.28-3.79,3.82v47.09h-19.31V0Z"/>
    <path class="cls-2" d="M490.45,20.59c-2.23-2.11-3.34-4.8-3.34-8.06s1.11-6.07,3.34-8.14c2.23-2.06,5.07-3.1,8.54-3.1s6.31,1.03,8.54,3.1c2.23,2.07,3.34,4.78,3.34,8.14s-1.11,5.95-3.34,8.06c-2.23,2.11-5.07,3.17-8.54,3.17s-6.31-1.06-8.54-3.17ZM489.33,36h19.31v67.68h-19.31V36Z"/>
    <path class="cls-2" d="M524.97,36h18.42v5.62c1.78-2.4,4.21-4.32,7.28-5.76,3.07-1.44,6.48-2.16,10.25-2.16,6.83,0,12.23,2.09,16.19,6.26,3.96,4.18,5.94,9.82,5.94,16.92v46.8h-19.31v-42.19c0-6.81-3.17-10.22-9.5-10.22-2.18,0-4.23.5-6.16,1.51s-3.19,2.28-3.79,3.82v47.09h-19.31V36Z"/>
    <path class="cls-2" d="M661.01,103.97c0,10.17-3.14,17.98-9.43,23.4-6.29,5.42-15.32,8.14-27.1,8.14-1.78,0-3.81-.12-6.09-.36-2.28-.24-4.41-.53-6.39-.86-1.98-.34-3.47-.7-4.46-1.08v-16.99c2.57.67,5.25,1.2,8.02,1.58,2.77.38,5.15.58,7.13.58,12.67,0,19.01-4.46,19.01-13.39v-.72c-2.97.67-5.74,1.01-8.32,1.01-11.68,0-20.94-3.14-27.77-9.43-6.83-6.29-10.25-14.81-10.25-25.56,0-7.29,1.83-13.63,5.5-19.01,3.66-5.38,8.84-9.53,15.52-12.46,6.68-2.93,14.53-4.39,23.54-4.39,3.46,0,7.08.17,10.84.5,3.76.34,7.18.79,10.25,1.37v67.68ZM637.4,51.55c-6.73,0-12.13,1.71-16.19,5.11-4.06,3.41-6.09,7.94-6.09,13.61s1.73,9.94,5.2,13.1c3.46,3.17,8.17,4.75,14.11,4.75,2.57,0,5-.38,7.28-1.15v-35.14c-1.29-.19-2.72-.29-4.31-.29Z"/>
  </g>
</svg>